<svg width="21" height="20" viewBox="0 0 21 20" fill="none" xmlns="http://www.w3.org/2000/svg">
<g clip-path="url(#clip0_214:11653)">
<path d="M2.03328 0.474976H0.974976V1.53328H2.03328V0.474976Z" fill="white"/>
<path d="M4.14997 0.474976H3.09167V1.53328H4.14997V0.474976Z" fill="white"/>
<path d="M6.26655 0.474976H5.20825V1.53328H6.26655V0.474976Z" fill="white"/>
<path d="M8.38325 0.474976H7.32495V1.53328H8.38325V0.474976Z" fill="white"/>
<path d="M10.5 0.474976H9.44165V1.53328H10.5V0.474976Z" fill="white"/>
<path d="M12.6165 0.474976H11.5582V1.53328H12.6165V0.474976Z" fill="white"/>
<path d="M14.7332 0.474976H13.6749V1.53328H14.7332V0.474976Z" fill="white"/>
<path d="M16.8499 0.474976H15.7916V1.53328H16.8499V0.474976Z" fill="white"/>
<path d="M18.9666 0.474976H17.9083V1.53328H18.9666V0.474976Z" fill="white"/>
<path d="M2.03328 1.53333H0.974976V2.59163H2.03328V1.53333Z" fill="white"/>
<path d="M6.26655 1.53333H5.20825V2.59163H6.26655V1.53333Z" fill="white"/>
<path d="M7.32502 1.53333H6.26672V2.59163H7.32502V1.53333Z" fill="white"/>
<path d="M8.38325 1.53333H7.32495V2.59163H8.38325V1.53333Z" fill="white"/>
<path d="M9.4416 1.53333H8.3833V2.59163H9.4416V1.53333Z" fill="white"/>
<path d="M13.675 1.53333H12.6167V2.59163H13.675V1.53333Z" fill="white"/>
<path d="M16.8499 1.53333H15.7916V2.59163H16.8499V1.53333Z" fill="white"/>
<path d="M20.025 1.53333H18.9667V2.59163H20.025V1.53333Z" fill="white"/>
<path d="M2.03328 2.59167H0.974976V3.64997H2.03328V2.59167Z" fill="white"/>
<path d="M5.20832 2.59167H4.15002V3.64997H5.20832V2.59167Z" fill="white"/>
<path d="M6.26655 2.59167H5.20825V3.64997H6.26655V2.59167Z" fill="white"/>
<path d="M7.32502 2.59167H6.26672V3.64997H7.32502V2.59167Z" fill="white"/>
<path d="M12.6165 2.59167H11.5582V3.64997H12.6165V2.59167Z" fill="white"/>
<path d="M13.675 2.59167H12.6167V3.64997H13.675V2.59167Z" fill="white"/>
<path d="M14.7332 2.59167H13.6749V3.64997H14.7332V2.59167Z" fill="white"/>
<path d="M15.7916 2.59167H14.7333V3.64997H15.7916V2.59167Z" fill="white"/>
<path d="M16.8499 2.59167H15.7916V3.64997H16.8499V2.59167Z" fill="white"/>
<path d="M17.9083 2.59167H16.85V3.64997H17.9083V2.59167Z" fill="white"/>
<path d="M18.9666 2.59167H17.9083V3.64997H18.9666V2.59167Z" fill="white"/>
<path d="M2.03328 3.65002H0.974976V4.70832H2.03328V3.65002Z" fill="white"/>
<path d="M3.09163 3.65002H2.03333V4.70832H3.09163V3.65002Z" fill="white"/>
<path d="M5.20832 3.65002H4.15002V4.70832H5.20832V3.65002Z" fill="white"/>
<path d="M6.26655 3.65002H5.20825V4.70832H6.26655V3.65002Z" fill="white"/>
<path d="M11.5583 3.65002H10.5V4.70832H11.5583V3.65002Z" fill="white"/>
<path d="M12.6165 3.65002H11.5582V4.70832H12.6165V3.65002Z" fill="white"/>
<path d="M14.7332 3.65002H13.6749V4.70832H14.7332V3.65002Z" fill="white"/>
<path d="M15.7916 3.65002H14.7333V4.70832H15.7916V3.65002Z" fill="white"/>
<path d="M16.8499 3.65002H15.7916V4.70832H16.8499V3.65002Z" fill="white"/>
<path d="M17.9083 3.65002H16.85V4.70832H17.9083V3.65002Z" fill="white"/>
<path d="M18.9666 3.65002H17.9083V4.70832H18.9666V3.65002Z" fill="white"/>
<path d="M20.025 3.65002H18.9667V4.70832H20.025V3.65002Z" fill="white"/>
<path d="M2.03328 4.70825H0.974976V5.76655H2.03328V4.70825Z" fill="white"/>
<path d="M3.09163 4.70825H2.03333V5.76655H3.09163V4.70825Z" fill="white"/>
<path d="M8.38325 4.70825H7.32495V5.76655H8.38325V4.70825Z" fill="white"/>
<path d="M11.5583 4.70825H10.5V5.76655H11.5583V4.70825Z" fill="white"/>
<path d="M13.675 4.70825H12.6167V5.76655H13.675V4.70825Z" fill="white"/>
<path d="M14.7332 4.70825H13.6749V5.76655H14.7332V4.70825Z" fill="white"/>
<path d="M15.7916 4.70825H14.7333V5.76655H15.7916V4.70825Z" fill="white"/>
<path d="M17.9083 4.70825H16.85V5.76655H17.9083V4.70825Z" fill="white"/>
<path d="M2.03328 5.76672H0.974976V6.82502H2.03328V5.76672Z" fill="white"/>
<path d="M3.09163 5.76672H2.03333V6.82502H3.09163V5.76672Z" fill="white"/>
<path d="M5.20832 5.76672H4.15002V6.82502H5.20832V5.76672Z" fill="white"/>
<path d="M10.5 5.76672H9.44165V6.82502H10.5V5.76672Z" fill="white"/>
<path d="M12.6165 5.76672H11.5582V6.82502H12.6165V5.76672Z" fill="white"/>
<path d="M13.675 5.76672H12.6167V6.82502H13.675V5.76672Z" fill="white"/>
<path d="M16.8499 5.76672H15.7916V6.82502H16.8499V5.76672Z" fill="white"/>
<path d="M17.9083 5.76672H16.85V6.82502H17.9083V5.76672Z" fill="white"/>
<path d="M18.9666 5.76672H17.9083V6.82502H18.9666V5.76672Z" fill="white"/>
<path d="M20.025 5.76672H18.9667V6.82502H20.025V5.76672Z" fill="white"/>
<path d="M2.03328 6.82495H0.974976V7.88325H2.03328V6.82495Z" fill="white"/>
<path d="M5.20832 6.82495H4.15002V7.88325H5.20832V6.82495Z" fill="white"/>
<path d="M6.26655 6.82495H5.20825V7.88325H6.26655V6.82495Z" fill="white"/>
<path d="M7.32502 6.82495H6.26672V7.88325H7.32502V6.82495Z" fill="white"/>
<path d="M8.38325 6.82495H7.32495V7.88325H8.38325V6.82495Z" fill="white"/>
<path d="M9.4416 6.82495H8.3833V7.88325H9.4416V6.82495Z" fill="white"/>
<path d="M10.5 6.82495H9.44165V7.88325H10.5V6.82495Z" fill="white"/>
<path d="M12.6165 6.82495H11.5582V7.88325H12.6165V6.82495Z" fill="white"/>
<path d="M14.7332 6.82495H13.6749V7.88325H14.7332V6.82495Z" fill="white"/>
<path d="M17.9083 6.82495H16.85V7.88325H17.9083V6.82495Z" fill="white"/>
<path d="M2.03328 7.8833H0.974976V8.9416H2.03328V7.8833Z" fill="white"/>
<path d="M3.09163 7.8833H2.03333V8.9416H3.09163V7.8833Z" fill="white"/>
<path d="M4.14997 7.8833H3.09167V8.9416H4.14997V7.8833Z" fill="white"/>
<path d="M5.20832 7.8833H4.15002V8.9416H5.20832V7.8833Z" fill="white"/>
<path d="M6.26655 7.8833H5.20825V8.9416H6.26655V7.8833Z" fill="white"/>
<path d="M8.38325 7.8833H7.32495V8.9416H8.38325V7.8833Z" fill="white"/>
<path d="M9.4416 7.8833H8.3833V8.9416H9.4416V7.8833Z" fill="white"/>
<path d="M14.7332 7.8833H13.6749V8.9416H14.7332V7.8833Z" fill="white"/>
<path d="M20.025 7.8833H18.9667V8.9416H20.025V7.8833Z" fill="white"/>
<path d="M2.03328 8.94165H0.974976V9.99995H2.03328V8.94165Z" fill="white"/>
<path d="M3.09163 8.94165H2.03333V9.99995H3.09163V8.94165Z" fill="white"/>
<path d="M8.38325 8.94165H7.32495V9.99995H8.38325V8.94165Z" fill="white"/>
<path d="M9.4416 8.94165H8.3833V9.99995H9.4416V8.94165Z" fill="white"/>
<path d="M12.6165 8.94165H11.5582V9.99995H12.6165V8.94165Z" fill="white"/>
<path d="M15.7916 8.94165H14.7333V9.99995H15.7916V8.94165Z" fill="white"/>
<path d="M2.03328 10H0.974976V11.0583H2.03328V10Z" fill="white"/>
<path d="M3.09163 10H2.03333V11.0583H3.09163V10Z" fill="white"/>
<path d="M4.14997 10H3.09167V11.0583H4.14997V10Z" fill="white"/>
<path d="M6.26655 10H5.20825V11.0583H6.26655V10Z" fill="white"/>
<path d="M10.5 10H9.44165V11.0583H10.5V10Z" fill="white"/>
<path d="M11.5583 10H10.5V11.0583H11.5583V10Z" fill="white"/>
<path d="M12.6165 10H11.5582V11.0583H12.6165V10Z" fill="white"/>
<path d="M18.9666 10H17.9083V11.0583H18.9666V10Z" fill="white"/>
<path d="M20.025 10H18.9667V11.0583H20.025V10Z" fill="white"/>
<path d="M2.03328 11.0582H0.974976V12.1165H2.03328V11.0582Z" fill="white"/>
<path d="M4.14997 11.0582H3.09167V12.1165H4.14997V11.0582Z" fill="white"/>
<path d="M12.6165 11.0582H11.5582V12.1165H12.6165V11.0582Z" fill="white"/>
<path d="M17.9083 11.0582H16.85V12.1165H17.9083V11.0582Z" fill="white"/>
<path d="M18.9666 11.0582H17.9083V12.1165H18.9666V11.0582Z" fill="white"/>
<path d="M2.03328 12.1167H0.974976V13.175H2.03328V12.1167Z" fill="white"/>
<path d="M4.14997 12.1167H3.09167V13.175H4.14997V12.1167Z" fill="white"/>
<path d="M5.20832 12.1167H4.15002V13.175H5.20832V12.1167Z" fill="white"/>
<path d="M6.26655 12.1167H5.20825V13.175H6.26655V12.1167Z" fill="white"/>
<path d="M7.32502 12.1167H6.26672V13.175H7.32502V12.1167Z" fill="white"/>
<path d="M9.4416 12.1167H8.3833V13.175H9.4416V12.1167Z" fill="white"/>
<path d="M11.5583 12.1167H10.5V13.175H11.5583V12.1167Z" fill="white"/>
<path d="M14.7332 12.1167H13.6749V13.175H14.7332V12.1167Z" fill="white"/>
<path d="M15.7916 12.1167H14.7333V13.175H15.7916V12.1167Z" fill="white"/>
<path d="M16.8499 12.1167H15.7916V13.175H16.8499V12.1167Z" fill="white"/>
<path d="M17.9083 12.1167H16.85V13.175H17.9083V12.1167Z" fill="white"/>
<path d="M18.9666 12.1167H17.9083V13.175H18.9666V12.1167Z" fill="white"/>
<path d="M20.025 12.1167H18.9667V13.175H20.025V12.1167Z" fill="white"/>
<path d="M2.03328 13.1749H0.974976V14.2332H2.03328V13.1749Z" fill="white"/>
<path d="M3.09163 13.1749H2.03333V14.2332H3.09163V13.1749Z" fill="white"/>
<path d="M5.20832 13.1749H4.15002V14.2332H5.20832V13.1749Z" fill="white"/>
<path d="M6.26655 13.1749H5.20825V14.2332H6.26655V13.1749Z" fill="white"/>
<path d="M10.5 13.1749H9.44165V14.2332H10.5V13.1749Z" fill="white"/>
<path d="M11.5583 13.1749H10.5V14.2332H11.5583V13.1749Z" fill="white"/>
<path d="M12.6165 13.1749H11.5582V14.2332H12.6165V13.1749Z" fill="white"/>
<path d="M14.7332 13.1749H13.6749V14.2332H14.7332V13.1749Z" fill="white"/>
<path d="M15.7916 13.1749H14.7333V14.2332H15.7916V13.1749Z" fill="white"/>
<path d="M16.8499 13.1749H15.7916V14.2332H16.8499V13.1749Z" fill="white"/>
<path d="M2.03328 14.2333H0.974976V15.2916H2.03328V14.2333Z" fill="white"/>
<path d="M3.09163 14.2333H2.03333V15.2916H3.09163V14.2333Z" fill="white"/>
<path d="M5.20832 14.2333H4.15002V15.2916H5.20832V14.2333Z" fill="white"/>
<path d="M6.26655 14.2333H5.20825V15.2916H6.26655V14.2333Z" fill="white"/>
<path d="M7.32502 14.2333H6.26672V15.2916H7.32502V14.2333Z" fill="white"/>
<path d="M9.4416 14.2333H8.3833V15.2916H9.4416V14.2333Z" fill="white"/>
<path d="M10.5 14.2333H9.44165V15.2916H10.5V14.2333Z" fill="white"/>
<path d="M12.6165 14.2333H11.5582V15.2916H12.6165V14.2333Z" fill="white"/>
<path d="M15.7916 14.2333H14.7333V15.2916H15.7916V14.2333Z" fill="white"/>
<path d="M16.8499 14.2333H15.7916V15.2916H16.8499V14.2333Z" fill="white"/>
<path d="M18.9666 14.2333H17.9083V15.2916H18.9666V14.2333Z" fill="white"/>
<path d="M20.025 14.2333H18.9667V15.2916H20.025V14.2333Z" fill="white"/>
<path d="M2.03328 15.2916H0.974976V16.3499H2.03328V15.2916Z" fill="white"/>
<path d="M4.14997 15.2916H3.09167V16.3499H4.14997V15.2916Z" fill="white"/>
<path d="M5.20832 15.2916H4.15002V16.3499H5.20832V15.2916Z" fill="white"/>
<path d="M8.38325 15.2916H7.32495V16.3499H8.38325V15.2916Z" fill="white"/>
<path d="M9.4416 15.2916H8.3833V16.3499H9.4416V15.2916Z" fill="white"/>
<path d="M10.5 15.2916H9.44165V16.3499H10.5V15.2916Z" fill="white"/>
<path d="M11.5583 15.2916H10.5V16.3499H11.5583V15.2916Z" fill="white"/>
<path d="M17.9083 15.2916H16.85V16.3499H17.9083V15.2916Z" fill="white"/>
<path d="M2.03328 16.35H0.974976V17.4083H2.03328V16.35Z" fill="white"/>
<path d="M3.09163 16.35H2.03333V17.4083H3.09163V16.35Z" fill="white"/>
<path d="M4.14997 16.35H3.09167V17.4083H4.14997V16.35Z" fill="white"/>
<path d="M6.26655 16.35H5.20825V17.4083H6.26655V16.35Z" fill="white"/>
<path d="M7.32502 16.35H6.26672V17.4083H7.32502V16.35Z" fill="white"/>
<path d="M8.38325 16.35H7.32495V17.4083H8.38325V16.35Z" fill="white"/>
<path d="M12.6165 16.35H11.5582V17.4083H12.6165V16.35Z" fill="white"/>
<path d="M14.7332 16.35H13.6749V17.4083H14.7332V16.35Z" fill="white"/>
<path d="M17.9083 16.35H16.85V17.4083H17.9083V16.35Z" fill="white"/>
<path d="M20.025 16.35H18.9667V17.4083H20.025V16.35Z" fill="white"/>
<path d="M2.03328 17.4083H0.974976V18.4666H2.03328V17.4083Z" fill="white"/>
<path d="M3.09163 17.4083H2.03333V18.4666H3.09163V17.4083Z" fill="white"/>
<path d="M4.14997 17.4083H3.09167V18.4666H4.14997V17.4083Z" fill="white"/>
<path d="M7.32502 17.4083H6.26672V18.4666H7.32502V17.4083Z" fill="white"/>
<path d="M9.4416 17.4083H8.3833V18.4666H9.4416V17.4083Z" fill="white"/>
<path d="M10.5 17.4083H9.44165V18.4666H10.5V17.4083Z" fill="white"/>
<path d="M14.7332 17.4083H13.6749V18.4666H14.7332V17.4083Z" fill="white"/>
<path d="M15.7916 17.4083H14.7333V18.4666H15.7916V17.4083Z" fill="white"/>
<path d="M17.9083 17.4083H16.85V18.4666H17.9083V17.4083Z" fill="white"/>
<path d="M18.9666 17.4083H17.9083V18.4666H18.9666V17.4083Z" fill="white"/>
<path d="M2.03328 18.4667H0.974976V19.525H2.03328V18.4667Z" fill="white"/>
<path d="M3.09163 18.4667H2.03333V19.525H3.09163V18.4667Z" fill="white"/>
<path d="M4.14997 18.4667H3.09167V19.525H4.14997V18.4667Z" fill="white"/>
<path d="M5.20832 18.4667H4.15002V19.525H5.20832V18.4667Z" fill="white"/>
<path d="M6.26655 18.4667H5.20825V19.525H6.26655V18.4667Z" fill="white"/>
<path d="M7.32502 18.4667H6.26672V19.525H7.32502V18.4667Z" fill="white"/>
<path d="M8.38325 18.4667H7.32495V19.525H8.38325V18.4667Z" fill="white"/>
<path d="M9.4416 18.4667H8.3833V19.525H9.4416V18.4667Z" fill="white"/>
<path d="M10.5 18.4667H9.44165V19.525H10.5V18.4667Z" fill="white"/>
<path d="M11.5583 18.4667H10.5V19.525H11.5583V18.4667Z" fill="white"/>
<path d="M12.6165 18.4667H11.5582V19.525H12.6165V18.4667Z" fill="white"/>
<path d="M13.675 18.4667H12.6167V19.525H13.675V18.4667Z" fill="white"/>
<path d="M14.7332 18.4667H13.6749V19.525H14.7332V18.4667Z" fill="white"/>
<path d="M15.7916 18.4667H14.7333V19.525H15.7916V18.4667Z" fill="white"/>
<path d="M16.8499 18.4667H15.7916V19.525H16.8499V18.4667Z" fill="white"/>
<path d="M17.9083 18.4667H16.85V19.525H17.9083V18.4667Z" fill="white"/>
<path d="M18.9666 18.4667H17.9083V19.525H18.9666V18.4667Z" fill="white"/>
<path d="M20.025 18.4667H18.9667V19.525H20.025V18.4667Z" fill="white"/>
</g>
<defs>
<clipPath id="clip0_214:11653">
<rect width="19.05" height="19.05" fill="white" transform="translate(0.974976 0.474976)"/>
</clipPath>
</defs>
</svg>
